<svg viewBox="0 0 24 24" xmlns="http://www.w3.org/2000/svg" aria-hidden="true">
  <path fill="#25D366" d="M20.5 3.5C18.3 1.3 15.4.2 12.4.2 5.9.2.7 5.4.7 12c0 2 .5 3.9 1.5 5.6L0 24l6.6-2.1c1.6.9 3.5 1.4 5.4 1.4 6.6 0 11.8-5.2 11.8-11.8 0-3-.1-5.9-2.3-8.1z"/>
  <path fill="#fff" d="M17.4 14.1c-.3.8-1.7 1.5-2.4 1.6-.7.1-1.6.1-2.6-.5-1.5-.8-2.6-1.9-3.5-3.2-.4-.6-.9-1.3-1-2.1-.1-.8.2-1.7.7-2.2.2-.2.4-.5.7-.5.2 0 .4.1.6.2.2.2.5.7.6.9.2.3.4.7.3 1.1-.1.4-.7.6-.9.9-.2.2-.2.5 0 .8.5.8 1.2 1.4 2 1.9.2.1.5.2.8.1.3-.1.6-.4.9-.6.2-.1.4 0 .6.1.3.2.8.4 1 .6.2.1.3.3.3.5z"/>
</svg>